<svg width="32" height="32" viewBox="0 0 24 24" fill="none" xmlns="http://www.w3.org/2000/svg">
<g clip-path="url(#clip0_457_452)">
<g filter="url(#filter0_d_457_452)">
<path d="M4.49258 12.2242C8.63926 8.0788 15.3611 8.07889 19.5077 12.2246L20.281 12.9951V11.1259C20.281 10.729 20.6028 10.4073 20.9997 10.4072C21.3966 10.4072 21.7183 10.729 21.7183 11.1259V14.7258C21.7183 15.1227 21.3966 15.4444 20.9997 15.4444H17.3998C17.0029 15.4444 16.6811 15.1227 16.6811 14.7258C16.6812 14.3289 17.0029 14.0071 17.3998 14.0071H19.2603L18.4929 13.2425L18.4922 13.2418C14.9066 9.65629 9.09328 9.65629 5.50774 13.2418L5.50669 13.2429L4.73611 14.01H6.59589C6.99275 14.01 7.31448 14.3318 7.31453 14.7286C7.31453 15.1255 6.99279 15.4472 6.59589 15.4472H2.99599C2.59909 15.4472 2.27734 15.1255 2.27734 14.7286V11.1287C2.27734 10.7318 2.59909 10.4101 2.99599 10.4101C3.39289 10.4101 3.71464 10.7318 3.71464 11.1287V12.9987L4.49258 12.2242Z" fill="black"/>
<path d="M15.9623 14.7255C15.9624 13.932 16.6057 13.2884 17.3995 13.2884V14.0069L17.3262 14.0104C16.9638 14.0472 16.681 14.3534 16.6809 14.7255C16.6809 15.1223 17.0026 15.444 17.3995 15.4441H20.9993C21.3713 15.4441 21.6775 15.1615 21.7144 14.7992L21.7183 14.7255V11.1256C21.7183 10.7287 21.3962 10.4071 20.9993 10.4071C20.6026 10.4072 20.2807 10.7288 20.2807 11.1256V12.9948L19.5076 12.2243C15.3611 8.07869 8.6392 8.07859 4.49252 12.224L3.7143 12.9983V11.1284C3.71426 10.7564 3.4317 10.4506 3.06942 10.4137L2.99573 10.4098C2.59889 10.4098 2.2772 10.7315 2.27716 11.1284V14.7282C2.27716 15.1251 2.59887 15.4467 2.99573 15.4468H6.59559C6.99249 15.4468 7.31416 15.1251 7.31416 14.7282C7.31404 14.3314 6.99242 14.0097 6.59559 14.0097V13.2911C7.38945 13.2911 8.033 13.9347 8.03312 14.7282C8.03312 15.522 7.38938 16.1657 6.59559 16.1657H2.99573C2.20197 16.1657 1.55859 15.522 1.55859 14.7282V11.1284C1.55863 10.3346 2.202 9.69127 2.99573 9.69122C3.7895 9.69122 4.43322 10.3346 4.43326 11.1284V11.2906C8.73024 7.43295 15.2638 7.43181 19.5622 11.287V11.1256C19.5622 10.3318 20.2058 9.68866 20.9993 9.6885L21.0734 9.69005C21.8329 9.72851 22.4368 10.3566 22.4368 11.1256V14.7255C22.4368 15.5193 21.7931 16.1626 20.9993 16.1626H17.3995C16.6306 16.1625 16.0028 15.5589 15.9643 14.7996L15.9623 14.7255ZM5.50741 13.2416C9.09294 9.65603 14.9064 9.65604 18.4919 13.2416L18.4927 13.2423L19.26 14.0069H17.3995V13.2884H17.4841C14.3292 10.5979 9.66602 10.5988 6.51215 13.2911H6.59559V14.0097H4.73581L5.50663 13.2427L5.50741 13.2416Z" fill="white"/>
</g>
</g>
<defs>
<filter id="filter0_d_457_452" x="0.121301" y="6.95919" width="23.7535" height="10.6441" filterUnits="userSpaceOnUse" color-interpolation-filters="sRGB">
<feFlood flood-opacity="0" result="BackgroundImageFix"/>
<feColorMatrix in="SourceAlpha" type="matrix" values="0 0 0 0 0 0 0 0 0 0 0 0 0 0 0 0 0 0 127 0" result="hardAlpha"/>
<feOffset/>
<feGaussianBlur stdDeviation="0.718646"/>
<feComposite in2="hardAlpha" operator="out"/>
<feColorMatrix type="matrix" values="0 0 0 0 0 0 0 0 0 0 0 0 0 0 0 0 0 0 0.12 0"/>
<feBlend mode="normal" in2="BackgroundImageFix" result="effect1_dropShadow_457_452"/>
<feBlend mode="normal" in="SourceGraphic" in2="effect1_dropShadow_457_452" result="shape"/>
</filter>
<clipPath id="clip0_457_452">
<rect width="24" height="24" fill="white"/>
</clipPath>
</defs>
</svg>

